<mxfile host="app.diagrams.net" modified="2024-03-04T13:10:51.645Z" agent="Mozilla/5.0 (Windows NT 10.0; Win64; x64; rv:121.0) Gecko/20100101 Firefox/121.0" etag="bPvECnJbEmDwTQRn-YOx" version="22.1.21" type="device">
  <diagram name="Page-1" id="FNWJA3FXg9T3dvWxwSLa">
    <mxGraphModel dx="2927" dy="2285" grid="1" gridSize="10" guides="1" tooltips="1" connect="1" arrows="1" fold="1" page="1" pageScale="1" pageWidth="827" pageHeight="1169" math="0" shadow="0">
      <root>
        <mxCell id="0" />
        <mxCell id="1" parent="0" />
        <mxCell id="GCU44mk9tj61GU9hJ0S8-1" value="Player" style="shape=umlActor;verticalLabelPosition=bottom;verticalAlign=top;html=1;outlineConnect=0;" parent="1" vertex="1">
          <mxGeometry x="-130" y="95" width="30" height="60" as="geometry" />
        </mxCell>
        <mxCell id="GCU44mk9tj61GU9hJ0S8-2" value="Start game" style="ellipse;whiteSpace=wrap;html=1;" parent="1" vertex="1">
          <mxGeometry x="-20" y="-35" width="120" height="80" as="geometry" />
        </mxCell>
        <mxCell id="GCU44mk9tj61GU9hJ0S8-3" value="Close app" style="ellipse;whiteSpace=wrap;html=1;" parent="1" vertex="1">
          <mxGeometry x="10" y="260" width="120" height="80" as="geometry" />
        </mxCell>
        <mxCell id="GCU44mk9tj61GU9hJ0S8-11" value="Menu&amp;nbsp; Principal" style="swimlane;fontStyle=0;childLayout=stackLayout;horizontal=1;startSize=26;fillColor=none;horizontalStack=0;resizeParent=1;resizeParentMax=0;resizeLast=0;collapsible=1;marginBottom=0;whiteSpace=wrap;html=1;" parent="1" vertex="1">
          <mxGeometry x="-60" y="-80" width="220" height="440" as="geometry" />
        </mxCell>
        <mxCell id="GCU44mk9tj61GU9hJ0S8-20" value="" style="endArrow=none;html=1;rounded=0;entryX=0.092;entryY=0.75;entryDx=0;entryDy=0;entryPerimeter=0;" parent="1" target="GCU44mk9tj61GU9hJ0S8-2" edge="1">
          <mxGeometry width="50" height="50" relative="1" as="geometry">
            <mxPoint x="-100" y="85" as="sourcePoint" />
            <mxPoint x="-50" y="35" as="targetPoint" />
          </mxGeometry>
        </mxCell>
        <mxCell id="GCU44mk9tj61GU9hJ0S8-22" value="" style="endArrow=none;html=1;rounded=0;entryX=0;entryY=0.5;entryDx=0;entryDy=0;" parent="1" target="GCU44mk9tj61GU9hJ0S8-3" edge="1">
          <mxGeometry width="50" height="50" relative="1" as="geometry">
            <mxPoint x="-100" y="200" as="sourcePoint" />
            <mxPoint x="90" y="325" as="targetPoint" />
          </mxGeometry>
        </mxCell>
        <mxCell id="U-l7j9EbARmztgih2SF4-1" value="See High Scores" style="ellipse;whiteSpace=wrap;html=1;" parent="1" vertex="1">
          <mxGeometry x="20" y="75" width="120" height="80" as="geometry" />
        </mxCell>
        <mxCell id="U-l7j9EbARmztgih2SF4-2" value="" style="endArrow=none;html=1;rounded=0;" parent="1" edge="1">
          <mxGeometry width="50" height="50" relative="1" as="geometry">
            <mxPoint x="-90" y="125" as="sourcePoint" />
            <mxPoint x="20" y="115" as="targetPoint" />
          </mxGeometry>
        </mxCell>
        <mxCell id="U-l7j9EbARmztgih2SF4-3" value="Player" style="shape=umlActor;verticalLabelPosition=bottom;verticalAlign=top;html=1;outlineConnect=0;" parent="1" vertex="1">
          <mxGeometry x="220" y="85" width="30" height="60" as="geometry" />
        </mxCell>
        <mxCell id="U-l7j9EbARmztgih2SF4-4" value="Game" style="swimlane;fontStyle=0;childLayout=stackLayout;horizontal=1;startSize=26;fillColor=none;horizontalStack=0;resizeParent=1;resizeParentMax=0;resizeLast=0;collapsible=1;marginBottom=0;whiteSpace=wrap;html=1;" parent="1" vertex="1">
          <mxGeometry x="260" y="-100" width="210" height="410" as="geometry" />
        </mxCell>
        <mxCell id="U-l7j9EbARmztgih2SF4-5" value="Move" style="ellipse;whiteSpace=wrap;html=1;" parent="1" vertex="1">
          <mxGeometry x="300" y="65" width="120" height="80" as="geometry" />
        </mxCell>
        <mxCell id="U-l7j9EbARmztgih2SF4-6" value="" style="endArrow=none;html=1;rounded=0;entryX=0.031;entryY=0.634;entryDx=0;entryDy=0;entryPerimeter=0;" parent="1" target="U-l7j9EbARmztgih2SF4-5" edge="1">
          <mxGeometry width="50" height="50" relative="1" as="geometry">
            <mxPoint x="250" y="125" as="sourcePoint" />
            <mxPoint x="341" y="65" as="targetPoint" />
          </mxGeometry>
        </mxCell>
        <mxCell id="U-l7j9EbARmztgih2SF4-7" value="Player" style="shape=umlActor;verticalLabelPosition=bottom;verticalAlign=top;html=1;outlineConnect=0;" parent="1" vertex="1">
          <mxGeometry x="530" y="75" width="30" height="60" as="geometry" />
        </mxCell>
        <mxCell id="U-l7j9EbARmztgih2SF4-8" value="End Game Score Menu" style="swimlane;fontStyle=0;childLayout=stackLayout;horizontal=1;startSize=26;fillColor=none;horizontalStack=0;resizeParent=1;resizeParentMax=0;resizeLast=0;collapsible=1;marginBottom=0;whiteSpace=wrap;html=1;" parent="1" vertex="1">
          <mxGeometry x="570" y="-110" width="210" height="410" as="geometry" />
        </mxCell>
        <mxCell id="U-l7j9EbARmztgih2SF4-9" value="Enter Name" style="ellipse;whiteSpace=wrap;html=1;" parent="1" vertex="1">
          <mxGeometry x="610" y="55" width="120" height="80" as="geometry" />
        </mxCell>
        <mxCell id="U-l7j9EbARmztgih2SF4-10" value="" style="endArrow=none;html=1;rounded=0;entryX=0.031;entryY=0.634;entryDx=0;entryDy=0;entryPerimeter=0;" parent="1" target="U-l7j9EbARmztgih2SF4-9" edge="1">
          <mxGeometry width="50" height="50" relative="1" as="geometry">
            <mxPoint x="560" y="115" as="sourcePoint" />
            <mxPoint x="651" y="55" as="targetPoint" />
          </mxGeometry>
        </mxCell>
        <mxCell id="U-l7j9EbARmztgih2SF4-11" value="Chose skin" style="ellipse;whiteSpace=wrap;html=1;" parent="1" vertex="1">
          <mxGeometry x="20" y="170" width="120" height="80" as="geometry" />
        </mxCell>
        <mxCell id="U-l7j9EbARmztgih2SF4-12" value="" style="endArrow=none;html=1;rounded=0;entryX=0;entryY=0.5;entryDx=0;entryDy=0;" parent="1" target="U-l7j9EbARmztgih2SF4-11" edge="1">
          <mxGeometry width="50" height="50" relative="1" as="geometry">
            <mxPoint x="-80" y="175" as="sourcePoint" />
            <mxPoint x="100" y="235" as="targetPoint" />
          </mxGeometry>
        </mxCell>
      </root>
    </mxGraphModel>
  </diagram>
</mxfile>
